<svg width="36" height="48" viewBox="0 0 36 48" fill="none" xmlns="http://www.w3.org/2000/svg">
<path d="M21 0H15C11.0218 0 7.20644 1.58035 4.3934 4.3934C1.58035 7.20644 0 11.0218 0 15L0 33C0 36.9782 1.58035 40.7936 4.3934 43.6066C7.20644 46.4196 11.0218 48 15 48H21C22.9698 48 24.9204 47.612 26.7402 46.8582C28.5601 46.1044 30.2137 44.9995 31.6066 43.6066C32.9995 42.2137 34.1044 40.5601 34.8582 38.7403C35.612 36.9204 36 34.9698 36 33V15C36 13.0302 35.612 11.0796 34.8582 9.25975C34.1044 7.43987 32.9995 5.78628 31.6066 4.3934C30.2137 3.00052 28.5601 1.89563 26.7402 1.14181C24.9204 0.387986 22.9698 0 21 0ZM31.5 33C31.497 35.7839 30.3898 38.4528 28.4213 40.4213C26.4528 42.3898 23.7839 43.497 21 43.5H15C12.2161 43.497 9.54715 42.3898 7.57867 40.4213C5.61018 38.4528 4.50298 35.7839 4.5 33V15C4.50298 12.2161 5.61018 9.54716 7.57867 7.57867C9.54715 5.61018 12.2161 4.50298 15 4.5H21C23.7839 4.50298 26.4528 5.61018 28.4213 7.57867C30.3898 9.54716 31.497 12.2161 31.5 15V33ZM18 9C17.2044 9 16.4413 9.31607 15.8787 9.87868C15.3161 10.4413 15 11.2044 15 12V15C15 15.7956 15.3161 16.5587 15.8787 17.1213C16.4413 17.6839 17.2044 18 18 18C18.7957 18 19.5587 17.6839 20.1213 17.1213C20.6839 16.5587 21 15.7956 21 15V12C21 11.2044 20.6839 10.4413 20.1213 9.87868C19.5587 9.31607 18.7957 9 18 9Z" fill="white"/>
</svg>
