<svg width="25" height="29" viewBox="0 0 25 29" fill="#fff" xmlns="http://www.w3.org/2000/svg">
<path d="M12.4286 14.5C16.3513 14.5 19.5306 11.2545 19.5306 7.25C19.5306 3.24551 16.3513 0 12.4286 0C8.5058 0 5.32653 3.24551 5.32653 7.25C5.32653 11.2545 8.5058 14.5 12.4286 14.5ZM17.744 16.3465L15.0918 27.1875L13.3163 19.4844L15.0918 16.3125H9.76531L11.5408 19.4844L9.76531 27.1875L7.11314 16.3465C3.15708 16.5391 0 19.8412 0 23.925V26.2812C0 27.7822 1.19292 29 2.66327 29H22.1939C23.6642 29 24.8571 27.7822 24.8571 26.2812V23.925C24.8571 19.8412 21.7001 16.5391 17.744 16.3465Z" fill="white"/>
</svg>
