<svg width="159" height="223" viewBox="0 0 159 223" fill="none" xmlns="http://www.w3.org/2000/svg">
<path d="M143.864 205.01L79.3733 222.375L14.8819 205.01L0 43.784H158.748L143.864 205.01Z" fill="#2062AF"/>
<path d="M79.3729 56.8431V208.525L79.5187 208.565L131.708 194.512L143.754 56.8431H79.3729Z" fill="#3C9CD7"/>
<path d="M42.7722 20.0966V10.5005H56.773V0H32.2717V29.6786H56.773V20.0966H42.7722ZM81.9589 10.5005H91.7473V0H67.2437V10.5005C70.5219 13.7787 72.2316 15.3478 76.9729 20.0891C74.2012 20.0891 67.2437 20.099 67.2437 20.0985V29.6786H91.7473V20.0966L81.9589 10.5005ZM116.688 10.5005H126.476V0H101.972V10.5005C105.25 13.7787 106.961 15.3478 111.702 20.0891C108.931 20.0891 101.972 20.099 101.972 20.0985V29.6786H126.477V20.0966L116.688 10.5005Z" fill="white"/>
<path d="M79.3156 97.1562L33.1576 116.38L34.6883 135.413L79.3156 116.331L126.787 96.035L128.756 76.5652L79.3156 97.1562Z" fill="white"/>
<path d="M33.1571 116.38L34.6878 135.412L79.3151 116.331V97.1562L33.1571 116.38Z" fill="url(#paint0_linear)"/>
<path d="M128.756 76.5657L79.3156 97.1562V116.331L126.787 96.035L128.756 76.5657Z" fill="url(#paint1_linear)"/>
<path d="M33.2281 116.38L34.7593 135.413L103.234 135.631L101.702 161.007L79.1702 167.351L57.5102 161.882L56.1978 146.131H36.0718L38.6971 176.539L79.389 188.571L119.86 176.757L125.111 116.38H33.2281Z" fill="url(#paint2_linear)"/>
<path opacity="0.05" d="M79.3155 116.38H33.1576L34.6883 135.413L79.3155 135.555V116.38ZM79.3155 167.29L79.0968 167.351L57.4396 161.882L56.1272 146.131H36.0017L38.6266 176.539L79.3155 188.571V167.29Z" fill="black"/>
<path d="M29.0006 76.5657H128.756L126.787 96.0355H31.4068L29.0006 76.5657Z" fill="url(#paint3_linear)"/>
<path opacity="0.05" d="M79.3157 76.5657H29.0006L31.4068 96.0355H79.3157V76.5657Z" fill="black"/>
<defs>
<linearGradient id="paint0_linear" x1="56.2361" y1="135.413" x2="56.2361" y2="97.1566" gradientUnits="userSpaceOnUse">
<stop offset="0.387" stop-color="#D1D3D4" stop-opacity="0"/>
<stop offset="1" stop-color="#D1D3D4"/>
</linearGradient>
<linearGradient id="paint1_linear" x1="104.035" y1="116.332" x2="104.035" y2="76.5662" gradientUnits="userSpaceOnUse">
<stop offset="0.387" stop-color="#D1D3D4" stop-opacity="0"/>
<stop offset="1" stop-color="#D1D3D4"/>
</linearGradient>
<linearGradient id="paint2_linear" x1="33.2281" y1="152.476" x2="125.11" y2="152.476" gradientUnits="userSpaceOnUse">
<stop stop-color="#E8E7E5"/>
<stop offset="1" stop-color="white"/>
</linearGradient>
<linearGradient id="paint3_linear" x1="29.0006" y1="86.3006" x2="128.755" y2="86.3006" gradientUnits="userSpaceOnUse">
<stop stop-color="#E8E7E5"/>
<stop offset="1" stop-color="white"/>
</linearGradient>
</defs>
</svg>
