<svg width="158" height="222" viewBox="0 0 158 222" fill="none" xmlns="http://www.w3.org/2000/svg">
<path d="M14.3196 203.791L0 43.547H157.351L143.015 203.765L78.5788 221.588L14.3196 203.791Z" fill="#E44D26"/>
<path d="M78.6753 207.965L130.743 193.563L142.994 56.6498H78.6753V207.965Z" fill="#F16529"/>
<path d="M78.6754 116.082H52.6095L50.8089 95.9567H78.6754V76.3032H29.2802L29.7522 81.5759L34.5936 135.735H78.6754V116.082ZM78.6754 167.123L78.5888 167.146L56.6506 161.236L55.248 145.562H35.474L38.2341 176.42L78.5853 187.596L78.6754 187.571V167.123Z" fill="#EBEBEB"/>
<path d="M14.64 0H24.6504V9.8674H33.8075V0H43.8182V29.8812H33.8075V19.8754H24.6504V29.8812H14.6407L14.64 0ZM56.9831 9.9095H48.1707V0H75.8119V9.9095H66.9952V29.8812H56.9834V9.9095H56.9831ZM80.198 0H90.6368L97.0578 10.4996L103.473 0H113.915V29.8812H103.944V15.0701L97.0567 25.6946H96.8847L89.9927 15.0701V29.8812H80.1977V0H80.198ZM118.896 0H128.909V20.0045H142.988V29.8812H118.896V0Z" fill="white"/>
<path d="M78.6073 116.082V135.735H102.864L100.577 161.224L78.6073 167.139V187.586L118.991 176.42L119.286 173.099L123.916 121.359L124.396 116.082H119.089H78.6073ZM78.6073 76.3032V95.9567H126.189L126.584 91.5389L127.481 81.5759L127.952 76.3032H78.6073Z" fill="white"/>
</svg>
